<?xml version="1.0" encoding="UTF-8" standalone="no"?>
<!-- Created with Inkscape (http://www.inkscape.org/) -->

<svg
   xmlns:osb="http://www.openswatchbook.org/uri/2009/osb"
   xmlns:dc="http://purl.org/dc/elements/1.1/"
   xmlns:cc="http://creativecommons.org/ns#"
   xmlns:rdf="http://www.w3.org/1999/02/22-rdf-syntax-ns#"
   xmlns:svg="http://www.w3.org/2000/svg"
   xmlns="http://www.w3.org/2000/svg"
   xmlns:xlink="http://www.w3.org/1999/xlink"
   xmlns:sodipodi="http://sodipodi.sourceforge.net/DTD/sodipodi-0.dtd"
   xmlns:inkscape="http://www.inkscape.org/namespaces/inkscape"
   width="1.6521389in"
   height="2.2159729in"
   viewBox="0 0 41.964328 56.285711"
   version="1.1"
   id="svg8"
   inkscape:version="0.92.3 (2405546, 2018-03-11)"
   sodipodi:docname="8ctavia_logo2.svg"
   inkscape:export-filename="/home/lily/Documents/work/drutopia/8ctavia_logo2.png"
   inkscape:export-xdpi="133.5"
   inkscape:export-ydpi="133.5">
  <defs
     id="defs2">
    <linearGradient
       inkscape:collect="always"
       id="linearGradient1022">
      <stop
         style="stop-color:#008000;stop-opacity:1;"
         offset="0"
         id="stop1018" />
      <stop
         style="stop-color:#008000;stop-opacity:0;"
         offset="1"
         id="stop1020" />
    </linearGradient>
    <linearGradient
       id="linearGradient2411"
       osb:paint="solid">
      <stop
         style="stop-color:#ccffaa;stop-opacity:1;"
         offset="0"
         id="stop2409" />
    </linearGradient>
    <linearGradient
       id="linearGradient2403"
       osb:paint="solid">
      <stop
         style="stop-color:#ccffaa;stop-opacity:1;"
         offset="0"
         id="stop2401" />
    </linearGradient>
    <linearGradient
       id="linearGradient2383"
       osb:paint="solid">
      <stop
         style="stop-color:#000000;stop-opacity:1;"
         offset="0"
         id="stop2381" />
    </linearGradient>
    <linearGradient
       id="linearGradient2377"
       osb:paint="solid">
      <stop
         style="stop-color:#00ff00;stop-opacity:1;"
         offset="0"
         id="stop2375" />
    </linearGradient>
    <linearGradient
       id="linearGradient913"
       osb:paint="solid">
      <stop
         style="stop-color:#00ff00;stop-opacity:1;"
         offset="0"
         id="stop911" />
    </linearGradient>
    <linearGradient
       inkscape:collect="always"
       xlink:href="#linearGradient1022"
       id="linearGradient1024"
       x1="-168.5238"
       y1="-189.21854"
       x2="-127.26935"
       y2="-189.21854"
       gradientUnits="userSpaceOnUse" />
  </defs>
  <sodipodi:namedview
     id="base"
     pagecolor="#ffffff"
     bordercolor="#666666"
     borderopacity="1.0"
     inkscape:pageopacity="0.0"
     inkscape:pageshadow="2"
     inkscape:zoom="1.1467976"
     inkscape:cx="64.370972"
     inkscape:cy="-42.617546"
     inkscape:document-units="mm"
     inkscape:current-layer="layer3"
     showgrid="false"
     showguides="true"
     inkscape:guide-bbox="true"
     inkscape:window-width="1213"
     inkscape:window-height="969"
     inkscape:window-x="67"
     inkscape:window-y="27"
     inkscape:window-maximized="1"
     fit-margin-top="0"
     fit-margin-left="0"
     fit-margin-right="0"
     fit-margin-bottom="0"
     units="in"
     showborder="true" />
  <metadata
     id="metadata5">
    <rdf:RDF>
      <cc:Work
         rdf:about="">
        <dc:format>image/svg+xml</dc:format>
        <dc:type
           rdf:resource="http://purl.org/dc/dcmitype/StillImage" />
        <dc:title></dc:title>
      </cc:Work>
    </rdf:RDF>
  </metadata>
  <g
     inkscape:label="fill"
     inkscape:groupmode="layer"
     id="layer1"
     style="display:inline"
     transform="translate(168.87874,194.07802)">
    <text
       xml:space="preserve"
       style="font-style:normal;font-variant:normal;font-weight:normal;font-stretch:normal;font-size:28.39497948px;line-height:1.25;font-family:Chilanka;-inkscape-font-specification:Chilanka;letter-spacing:0px;word-spacing:0px;fill:#000000;fill-opacity:1;stroke:none;stroke-width:0.70987445"
       x="135.1604"
       y="378.83566"
       id="text3737"><tspan
         sodipodi:role="line"
         id="tspan3735"
         x="135.1604"
         y="401.31503"
         style="font-size:53.00396347px;stroke-width:0.70987445" /></text>
    <path
       style="fill:#ccffaa;fill-opacity:0;stroke-width:0.70987445"
       d="m -59.465385,-130.70543 c -2.963641,-1.08968 -5.324059,-3.40333 -5.324059,-5.21855 0,-2.13385 3.796245,-7.63985 6.89937,-10.00673 l 2.595308,-1.97953 6.042969,3.15465 c 5.883355,3.07133 10.727709,7.70459 10.727709,10.26025 0,0.5287 -1.032455,1.69646 -2.294351,2.59501 -1.974458,1.40594 -3.285873,1.65772 -9.405836,1.80582 -3.911315,0.0947 -8.069817,-0.18031 -9.24111,-0.61092 z"
       id="path34"
       inkscape:connector-curvature="0" />
    <path
       style="opacity:0.98999999;fill:#ccffaa;fill-opacity:0;stroke-width:0.70987445"
       d="m -61.323709,-158.77545 c -7.092363,-5.3411 -8.799299,-10.61971 -4.371463,-13.51858 1.478895,-0.96823 3.363129,-1.24533 8.329751,-1.22505 7.911537,0.0323 11.032714,1.32899 11.032714,4.58354 0,1.52834 0.495322,2.34825 1.846221,3.05604 l 1.846226,0.96735 -6.209457,4.44157 c -3.415198,2.44288 -6.599604,4.5913 -7.076448,4.77428 -0.476843,0.18298 -2.905735,-1.20264 -5.397544,-3.07915 z"
       id="path36"
       inkscape:connector-curvature="0" />
    <path
       style="opacity:0.98999999;fill:#ccffaa;fill-opacity:0;stroke-width:0.70987445"
       d="m -58.580342,-124.92496 c -1.699632,-0.36014 -4.480039,-1.46926 -6.178669,-2.46472 -7.867163,-4.61048 -7.688686,-10.90972 0.564968,-19.94054 1.962028,-2.14678 3.44529,-4.0217 3.296138,-4.1665 -0.149144,-0.14472 -2.222055,-1.69668 -4.606454,-3.44862 -4.857266,-3.56888 -8.089481,-8.86117 -8.084873,-13.2378 0.0071,-6.59351 6.241145,-10.67034 16.324457,-10.67531 7.520979,-0.004 10.388986,0.77569 13.843803,3.76214 2.107957,1.82219 2.719934,2.86773 2.719934,4.64694 0,3.14109 -1.677739,4.77619 -3.758233,3.66274 -0.905672,-0.48469 -1.395342,-1.25651 -1.169908,-1.84398 1.126621,-2.93593 -2.149769,-4.94842 -9.184746,-5.64163 -5.339136,-0.52611 -10.428717,0.41463 -12.56656,2.32276 -1.670634,1.49111 -1.59139,5.63153 0.16285,8.50866 1.372428,2.25092 9.405894,8.7072 10.834239,8.7072 0.932982,0 14.038237,-9.41051 15.769741,-11.3238 0.723689,-0.79967 1.866054,-1.45394 2.538597,-1.45394 1.614779,0 2.947356,1.67223 2.42251,3.03998 -0.436162,1.13659 -6.058849,5.71302 -11.851446,9.64613 -1.854549,1.25919 -3.371905,2.53478 -3.371905,2.8346 0,0.29984 1.714638,1.25584 3.810309,2.12444 4.675496,1.93788 8.812169,5.39576 11.793166,9.85799 1.844516,2.76106 2.19129,3.87427 1.902747,6.10821 -0.734486,5.68646 -6.246717,8.92048 -15.943113,9.35379 -3.397509,0.15184 -7.567909,-0.0186 -9.267546,-0.37874 z m 16.95986,-5.85038 c 4.204005,-2.11995 4.451296,-4.08074 1.072712,-8.50554 -1.887124,-2.47147 -3.956053,-4.01574 -8.278876,-6.17939 -3.169666,-1.58644 -6.189992,-2.88446 -6.711842,-2.88446 -1.435181,0 -7.69927,6.56321 -9.118422,9.55386 -1.614382,3.40206 -1.005183,5.72247 1.896295,7.22289 3.695038,1.91078 5.503358,2.26431 11.911763,2.32882 4.954244,0.0498 6.639358,-0.23063 9.22837,-1.53618 z"
       id="path851"
       inkscape:connector-curvature="0" />
    <path
       style="opacity:0.98999999;fill:#ccffaa;fill-opacity:0;stroke-width:0.70987445"
       d="m -61.527769,-158.87239 c -2.539867,-1.8741 -5.015555,-4.28015 -5.501528,-5.34675 -1.202386,-2.63894 -1.111208,-5.80269 0.205168,-7.11907 4.505311,-4.5053 22.074405,-2.35679 20.529571,2.51057 -0.288374,0.90857 0.203072,1.65653 1.677589,2.55323 l 2.085427,1.26824 -6.671358,4.78134 c -3.669248,2.62974 -6.904367,4.77652 -7.189147,4.77062 -0.284787,-0.005 -2.595863,-1.54407 -5.135722,-3.41818 z"
       id="path853"
       inkscape:connector-curvature="0" />
    <path
       style="opacity:0.98999999;fill:#008000;fill-opacity:0;stroke-width:0.70987445"
       d="m -60.667017,-131.75089 c -4.976406,-2.51933 -4.732274,-5.39907 0.98086,-11.56992 l 3.958247,-4.27537 4.378157,2.19297 c 4.930206,2.4695 9.909587,6.27974 11.621994,8.89321 1.094045,1.66972 1.059709,1.83564 -0.756037,3.65318 -1.808674,1.81046 -2.293796,1.91346 -9.873956,2.09662 -6.315795,0.15258 -8.457402,-0.0531 -10.309265,-0.99069 z"
       id="path855"
       inkscape:connector-curvature="0" />
    <path
       style="opacity:0.98999999;fill:#008000;fill-opacity:0;stroke-width:0.70987445"
       d="m -58.580342,-124.92496 c -1.699632,-0.36014 -4.480039,-1.46926 -6.178669,-2.46472 -7.867163,-4.61048 -7.688686,-10.90972 0.564968,-19.94054 1.962028,-2.14678 3.44529,-4.0217 3.296138,-4.1665 -0.149144,-0.14472 -2.222055,-1.69668 -4.606454,-3.44862 -4.857266,-3.56888 -8.089481,-8.86117 -8.084873,-13.2378 0.0071,-6.59351 6.241145,-10.67034 16.324457,-10.67531 7.520979,-0.004 10.388986,0.77569 13.843803,3.76214 2.107957,1.82219 2.719934,2.86773 2.719934,4.64694 0,3.14109 -1.677739,4.77619 -3.758233,3.66274 -0.905672,-0.48469 -1.395342,-1.25651 -1.169908,-1.84398 1.126621,-2.93593 -2.149769,-4.94842 -9.184746,-5.64163 -5.339136,-0.52611 -10.428717,0.41463 -12.56656,2.32276 -1.670634,1.49111 -1.59139,5.63153 0.16285,8.50866 1.372428,2.25092 9.405894,8.7072 10.834239,8.7072 0.932982,0 14.038237,-9.41051 15.769741,-11.3238 0.723689,-0.79967 1.866054,-1.45394 2.538597,-1.45394 1.614779,0 2.947356,1.67223 2.42251,3.03998 -0.436162,1.13659 -6.058849,5.71302 -11.851446,9.64613 -1.854549,1.25919 -3.371905,2.53478 -3.371905,2.8346 0,0.29984 1.714638,1.25584 3.810309,2.12444 4.675496,1.93788 8.812169,5.39576 11.793166,9.85799 1.844516,2.76106 2.19129,3.87427 1.902747,6.10821 -0.734486,5.68646 -6.246717,8.92048 -15.943113,9.35379 -3.397509,0.15184 -7.567909,-0.0186 -9.267546,-0.37874 z m 16.95986,-5.85038 c 4.204005,-2.11995 4.451296,-4.08074 1.072712,-8.50554 -1.887124,-2.47147 -3.956053,-4.01574 -8.278876,-6.17939 -3.169666,-1.58644 -6.189992,-2.88446 -6.711842,-2.88446 -1.435181,0 -7.69927,6.56321 -9.118422,9.55386 -1.614382,3.40206 -1.005183,5.72247 1.896295,7.22289 3.695038,1.91078 5.503358,2.26431 11.911763,2.32882 4.954244,0.0498 6.639358,-0.23063 9.22837,-1.53618 z"
       id="path857"
       inkscape:connector-curvature="0" />
    <path
       style="opacity:0.98999999;fill:#008000;fill-opacity:0;stroke-width:0.70987445"
       d="m -61.527769,-158.87239 c -2.539867,-1.8741 -5.015555,-4.28015 -5.501528,-5.34675 -1.202386,-2.63894 -1.111208,-5.80269 0.205168,-7.11907 4.505311,-4.5053 22.074405,-2.35679 20.529571,2.51057 -0.288374,0.90857 0.203072,1.65653 1.677589,2.55323 l 2.085427,1.26824 -6.671358,4.78134 c -3.669248,2.62974 -6.904367,4.77652 -7.189147,4.77062 -0.284787,-0.005 -2.595863,-1.54407 -5.135722,-3.41818 z"
       id="path859"
       inkscape:connector-curvature="0" />
    <path
       style="opacity:0.98999999;fill:#008000;fill-opacity:0;stroke-width:0.70987445"
       d="m -61.527769,-158.87239 c -2.539867,-1.8741 -5.015555,-4.28015 -5.501528,-5.34675 -1.202386,-2.63894 -1.111208,-5.80269 0.205168,-7.11907 4.505311,-4.5053 22.074405,-2.35679 20.529571,2.51057 -0.288374,0.90857 0.203072,1.65653 1.677589,2.55323 l 2.085427,1.26824 -6.671358,4.78134 c -3.669248,2.62974 -6.904367,4.77652 -7.189147,4.77062 -0.284787,-0.005 -2.595863,-1.54407 -5.135722,-3.41818 z"
       id="path861"
       inkscape:connector-curvature="0" />
    <path
       style="opacity:0.98999999;fill:#008000;fill-opacity:0;stroke-width:0.70987445"
       d="m -61.527769,-158.87239 c -2.539867,-1.8741 -5.015555,-4.28015 -5.501528,-5.34675 -1.202386,-2.63894 -1.111208,-5.80269 0.205168,-7.11907 4.505311,-4.5053 22.074405,-2.35679 20.529571,2.51057 -0.288374,0.90857 0.203072,1.65653 1.677589,2.55323 l 2.085427,1.26824 -6.671358,4.78134 c -3.669248,2.62974 -6.904367,4.77652 -7.189147,4.77062 -0.284787,-0.005 -2.595863,-1.54407 -5.135722,-3.41818 z"
       id="path863"
       inkscape:connector-curvature="0" />
    <flowRoot
       xml:space="preserve"
       id="flowRoot865"
       style="font-style:normal;font-variant:normal;font-weight:normal;font-stretch:normal;font-size:53.33333206px;line-height:1.25;font-family:Chilanka;-inkscape-font-specification:Chilanka;letter-spacing:0px;word-spacing:0px;fill:#000000;fill-opacity:1;stroke:none"
       transform="matrix(0.70987447,0,0,0.70987447,56.009392,209.51662)"><flowRegion
         id="flowRegion867"><rect
           id="rect869"
           width="257"
           height="125"
           x="-53"
           y="-338.48032" /></flowRegion><flowPara
         id="flowPara871" /></flowRoot>    <path
       style="opacity:0.98999999;fill:#008000;fill-opacity:0;stroke-width:0.70987445"
       d="m -154.91262,-172.43804 c -7.26678,-5.09558 -9.51875,-10.72198 -5.54316,-13.84918 1.58185,-1.24426 2.86874,-1.4711 8.34103,-1.47017 7.26869,10e-4 11.38433,1.39666 11.51209,3.90321 0.14256,2.79707 0.30657,3.08411 2.10447,3.68342 1.73337,0.5778 1.48062,0.85181 -5.20141,5.63896 l -7.02331,5.03163 z"
       id="path873"
       inkscape:connector-curvature="0" />
    <path
       style="opacity:0.98999999;fill:#ccffaa;fill-opacity:0;stroke-width:0.70987445"
       d="m -151.0593,-144.43694 c -5.6264,-1.00467 -8.91494,-3.65905 -8.17681,-6.60001 0.60427,-2.40759 4.21716,-7.16201 7.13171,-9.38506 l 2.51026,-1.91467 5.86198,3.10846 c 6.24757,3.3129 10.77673,7.99842 10.36931,10.7273 -0.47446,3.17792 -10.1785,5.40644 -17.69645,4.06398 z"
       id="path875"
       inkscape:connector-curvature="0" />
    <path
       style="opacity:0.98999999;fill:#ccffaa;fill-opacity:0;stroke-width:0.70987445"
       d="m -154.91262,-172.43804 c -7.26678,-5.09558 -9.51875,-10.72198 -5.54316,-13.84918 1.58185,-1.24426 2.86874,-1.4711 8.34103,-1.47017 7.26869,10e-4 11.38433,1.39666 11.51209,3.90321 0.14256,2.79707 0.30657,3.08411 2.10447,3.68342 1.73337,0.5778 1.48062,0.85181 -5.20141,5.63896 l -7.02331,5.03163 z"
       id="path877"
       inkscape:connector-curvature="0" />
    <path
       style="opacity:0.98999999;fill:#ccffaa;fill-opacity:0;stroke-width:0.70987445"
       d="m -151.0593,-144.43694 c -5.6264,-1.00467 -8.91494,-3.65905 -8.17681,-6.60001 0.60427,-2.40759 4.21716,-7.16201 7.13171,-9.38506 l 2.51026,-1.91467 5.86198,3.10846 c 6.24757,3.3129 10.77673,7.99842 10.36931,10.7273 -0.47446,3.17792 -10.1785,5.40644 -17.69645,4.06398 z"
       id="path879"
       inkscape:connector-curvature="0" />
    <path
       style="opacity:0.98999999;fill:#ccffaa;fill-opacity:0;stroke-width:0.70987445"
       d="m -151.0593,-144.43694 c -5.6264,-1.00467 -8.91494,-3.65905 -8.17681,-6.60001 0.60427,-2.40759 4.21716,-7.16201 7.13171,-9.38506 l 2.51026,-1.91467 5.86198,3.10846 c 6.24757,3.3129 10.77673,7.99842 10.36931,10.7273 -0.47446,3.17792 -10.1785,5.40644 -17.69645,4.06398 z"
       id="path881"
       inkscape:connector-curvature="0" />
    <path
       style="opacity:0.98999999;fill:#00ff00;fill-opacity:0;stroke-width:0.70987445"
       d="m -155.07002,-139.82047 c -6.59862,-2.06051 -10.56182,-6.87446 -9.7271,-11.81513 0.4824,-2.85527 5.75189,-10.6543 8.25481,-12.21741 1.98103,-1.23717 1.62169,-2.05885 -1.8632,-4.26049 -7.66862,-4.84474 -11.75806,-14.09542 -8.37924,-18.95462 3.34977,-4.8174 8.42204,-6.65898 17.18674,-6.23995 5.16705,0.24704 6.73886,0.62162 9.56945,2.28047 3.96862,2.32576 5.79402,5.65675 4.69051,8.55921 -0.40433,1.06344 -1.24405,1.80865 -2.03805,1.80865 -1.45273,0 -3.42511,-1.88512 -2.71518,-2.59505 0.85061,-0.85062 -1.09841,-3.22313 -3.45758,-4.20886 -2.87766,-1.20236 -12.64028,-1.338 -15.84689,-0.22017 -3.79077,1.32147 -4.66561,4.81955 -2.39803,9.58859 0.81461,1.71328 2.92596,3.79583 6.13316,6.04952 l 4.89087,3.43684 4.69242,-3.30887 c 2.58084,-1.81987 6.69461,-4.88277 9.14172,-6.80644 4.42892,-3.48155 6.13207,-3.86047 7.01461,-1.5606 0.58276,1.51863 -1.48879,3.57702 -9.00756,8.95028 -3.47658,2.48452 -6.32522,4.67703 -6.33032,4.87224 -0.005,0.19523 2.44867,1.63843 5.4528,3.2071 6.50227,3.39536 11.41817,8.97149 12.04782,13.66598 0.3368,2.51098 0.0887,3.14017 -2.26643,5.74698 -1.86378,2.06299 -3.70739,3.2429 -6.24393,3.99618 -4.41646,1.31156 -14.63861,1.32544 -18.8014,0.0256 z m 16.63007,-4.33648 c 3.01172,-0.45344 5.92848,-2.85835 5.92848,-4.88813 0,-2.92739 -5.63294,-8.26205 -11.98546,-11.35076 l -5.77315,-2.80703 -3.60084,3.5169 c -4.2464,4.14741 -6.61041,8.31962 -6.02825,10.63916 1.12268,4.47305 10.31509,6.56772 21.45922,4.88986 z"
       id="path885"
       inkscape:connector-curvature="0" />
    <text
       xml:space="preserve"
       style="font-style:normal;font-variant:normal;font-weight:normal;font-stretch:normal;font-size:37.85997391px;line-height:1.25;font-family:Chilanka;-inkscape-font-specification:Chilanka;letter-spacing:0px;word-spacing:0px;fill:#000000;fill-opacity:1;stroke:none;stroke-width:0.70987445"
       x="-211.6133"
       y="-30.761929"
       id="text2417"><tspan
         sodipodi:role="line"
         id="tspan2415"
         x="-211.6133"
         y="-0.78944921"
         style="stroke-width:0.70987445" /></text>
    <text
       xml:space="preserve"
       style="font-style:normal;font-variant:normal;font-weight:normal;font-stretch:normal;font-size:37.85997391px;line-height:1.25;font-family:Chilanka;-inkscape-font-specification:Chilanka;letter-spacing:0px;word-spacing:0px;fill:#000000;fill-opacity:1;stroke:none;stroke-width:0.70987445"
       x="-239.29842"
       y="-42.829792"
       id="text2421"><tspan
         sodipodi:role="line"
         id="tspan2419"
         x="-239.29842"
         y="-12.857313"
         style="stroke-width:0.70987445" /></text>
    <text
       id="text2425"
       y="-42.829792"
       x="-239.29842"
       style="font-style:normal;font-variant:normal;font-weight:normal;font-stretch:normal;font-size:37.85997391px;line-height:1.25;font-family:Chilanka;-inkscape-font-specification:Chilanka;letter-spacing:0px;word-spacing:0px;fill:#000000;fill-opacity:1;stroke:none;stroke-width:0.70987445"
       xml:space="preserve"><tspan
         style="stroke-width:0.70987445"
         y="-12.857313"
         x="-239.29842"
         id="tspan2423"
         sodipodi:role="line" /></text>
    <flowRoot
       xml:space="preserve"
       id="flowRoot2427"
       style="font-style:normal;font-variant:normal;font-weight:normal;font-stretch:normal;font-size:53.33333206px;line-height:1.25;font-family:Chilanka;-inkscape-font-specification:Chilanka;letter-spacing:0px;word-spacing:0px;fill:#000000;fill-opacity:1;stroke:none"
       transform="matrix(0.70987447,0,0,0.70987447,56.009392,209.51662)"><flowRegion
         id="flowRegion2429"><rect
           id="rect2431"
           width="229"
           height="81"
           x="-12"
           y="-332.48032" /></flowRegion><flowPara
         id="flowPara2433" /></flowRoot>    <path
       style="display:inline;fill:#ccffab;fill-opacity:0.98431373;stroke:#ccffab;stroke-width:0.0864553;stroke-opacity:0.98431373"
       d="m -152.04367,-170.29342 c -2.56673,-1.60932 -6.61306,-4.52684 -7.45805,-5.37747 -0.5486,-0.55226 -1.50117,-1.98634 -2.09278,-3.15066 -1.30825,-2.57468 -1.36696,-4.66563 -0.17539,-6.24596 0.95934,-1.27235 2.64727,-2.11318 5.07935,-2.53025 2.94343,-0.50476 8.61064,-0.3202 11.54145,0.37587 2.45718,0.58358 4.45297,2.0471 4.45271,3.26518 -4e-5,0.18021 -0.0585,0.60752 -0.12982,0.94957 -0.16281,0.78042 -0.0616,1.34431 0.33532,1.86739 0.64703,0.85278 2.11049,1.49043 3.28457,1.43114 0.35986,-0.0182 0.62636,-0.01 0.59223,0.0187 -1.2841,1.07093 -3.50797,2.70993 -7.15139,5.2706 -1.71182,1.2031 -3.96074,2.80355 -4.99762,3.55656 -1.03687,0.75301 -1.91223,1.36908 -1.94524,1.36903 -0.033,-6e-5 -0.63392,-0.35993 -1.33534,-0.79972 z"
       id="path1028"
       inkscape:connector-curvature="0" />
    <path
       style="fill:#ccffab;fill-opacity:0.98431373;stroke:#ccffab;stroke-width:0.0864553;stroke-opacity:0.98431373"
       d="m -148.34348,-143.99093 c -4.59339,-0.33941 -8.17735,-1.61563 -10.06884,-3.58542 -0.73932,-0.76992 -0.99949,-1.35459 -1.00066,-2.24868 -0.001,-0.84148 0.22841,-1.60136 0.86117,-2.85125 1.33665,-2.64028 4.02139,-5.67977 7.84719,-8.8841 l 0.58247,-0.48785 1.44923,0.69413 c 0.79708,0.38177 2.11062,0.98631 2.91897,1.3434 4.85926,2.14662 6.65411,3.24286 8.73527,5.33527 2.01549,2.0264 3.83065,4.84683 3.99108,6.20147 0.0667,0.56351 -0.17651,0.92448 -1.11583,1.65577 -2.18063,1.69768 -3.90204,2.33101 -7.33098,2.69717 -1.51148,0.16141 -5.4387,0.23578 -6.86907,0.13009 z"
       id="path1031"
       inkscape:connector-curvature="0" />
  </g>
  <g
     inkscape:groupmode="layer"
     id="layer3"
     inkscape:label="dark"
     style="display:inline"
     transform="translate(-2.1296453,-25.624579)">
    <text
       xml:space="preserve"
       style="font-style:normal;font-variant:normal;font-weight:normal;font-stretch:normal;font-size:37.85997391px;line-height:1.25;font-family:Chilanka;-inkscape-font-specification:Chilanka;letter-spacing:0px;word-spacing:0px;display:inline;fill:#008000;fill-opacity:1;stroke:#008000;stroke-width:0.70987445;stroke-opacity:1;"
       x="-1.6172204"
       y="81.053452"
       id="text24-0"
       inkscape:export-xdpi="133.5"
       inkscape:export-ydpi="133.5"><tspan
         sodipodi:role="line"
         id="tspan22-2"
         x="-1.6172204"
         y="81.053452"
         style="font-size:68.14795685px;fill:#008000;fill-opacity:1;stroke:#008000;stroke-width:0.70987445;stroke-opacity:1;"><tspan
           style="font-style:normal;font-variant:normal;font-weight:normal;font-stretch:normal;font-size:85.18494415px;font-family:Chilanka;-inkscape-font-specification:'Chilanka, Normal';font-variant-ligatures:normal;font-variant-caps:normal;font-variant-numeric:normal;font-feature-settings:normal;text-align:start;writing-mode:lr-tb;text-anchor:start;fill:#008000;fill-opacity:1;stroke:#008000;stroke-width:0.70987445;stroke-opacity:1;"
           id="tspan32-9">8</tspan><tspan
           style="font-size:53.00396347px;fill:#008000;fill-opacity:1;stroke:#008000;stroke-width:0.70987445;stroke-opacity:1;"
           id="tspan30-4" /></tspan></text>
  </g>
</svg>
